#########################################
# Wavefront .obj file
# Created by: Cube Fiefdom (v 0.4)
# Date: 03/01/26 15:15:21
#########################################

mtllib save.mtl
o save
v 2.000000 1.000000 0.000000
v 2.000000 2.000000 0.000000
v 3.000000 2.000000 0.000000
v 3.000000 1.000000 0.000000
v 2.000000 1.000000 1.000000
v 3.000000 1.000000 1.000000
v 3.000000 2.000000 1.000000
v 2.000000 2.000000 1.000000
v 1.000000 1.000000 0.000000
v 1.000000 2.000000 0.000000
v 1.000000 1.000000 1.000000
v 1.000000 2.000000 1.000000
v 2.000000 0.000000 0.000000
v 3.000000 0.000000 0.000000
v 2.000000 0.000000 1.000000
v 3.000000 0.000000 1.000000
v 0.000000 0.000000 0.000000
v 0.000000 1.000000 0.000000
v 1.000000 0.000000 0.000000
v 0.000000 0.000000 1.000000
v 1.000000 0.000000 1.000000
v 0.000000 1.000000 1.000000
v -1.000000 2.000000 0.000000
v -1.000000 3.000000 0.000000
v 0.000000 3.000000 0.000000
v 0.000000 2.000000 0.000000
v -1.000000 2.000000 1.000000
v 0.000000 2.000000 1.000000
v 0.000000 3.000000 1.000000
v -1.000000 3.000000 1.000000
v -1.000000 0.000000 0.000000
v -1.000000 1.000000 0.000000
v -1.000000 0.000000 1.000000
v -1.000000 1.000000 1.000000
v 1.000000 3.000000 0.000000
v 1.000000 3.000000 1.000000
v 2.000000 3.000000 0.000000
v 2.000000 3.000000 1.000000
v 3.000000 3.000000 0.000000
v 3.000000 3.000000 1.000000
vn 0.0000 0.0000 -1.0000
vn 0.0000 0.0000 1.0000
vn 1.0000 0.0000 0.0000
vn 0.0000 -1.0000 0.0000
vn 0.0000 1.0000 0.0000
vn -1.0000 0.0000 0.0000
vt 0.501000 0.501000
vt 0.501000 0.624000
vt 0.624000 0.624000
vt 0.624000 0.501000
vt 0.001000 0.001000
vt 0.001000 0.124000
vt 0.124000 0.124000
vt 0.124000 0.001000
s 0
usemtl saveMaterial.001
f 1/1/1 2/2/1 3/3/1
f 3/3/1 4/4/1 1/1/1
f 5/1/2 6/4/2 7/3/2
f 7/3/2 8/2/2 5/1/2
f 4/1/3 3/4/3 7/3/3
f 7/3/3 6/2/3 4/1/3
f 9/1/1 10/2/1 2/3/1
f 2/3/1 1/4/1 9/1/1
f 11/1/2 5/4/2 8/3/2
f 8/3/2 12/2/2 11/1/2
f 13/1/1 1/2/1 4/3/1
f 4/3/1 14/4/1 13/1/1
f 15/1/2 16/4/2 6/3/2
f 6/3/2 5/2/2 15/1/2
f 13/1/4 14/4/4 16/3/4
f 16/3/4 15/2/4 13/1/4
f 14/1/3 4/4/3 6/3/3
f 6/3/3 16/2/3 14/1/3
f 17/5/1 18/6/1 9/7/1
f 9/7/1 19/8/1 17/5/1
f 20/5/2 21/8/2 11/7/2
f 11/7/2 22/6/2 20/5/2
f 17/5/4 19/8/4 21/7/4
f 21/7/4 20/6/4 17/5/4
f 23/1/1 24/2/1 25/3/1
f 25/3/1 26/4/1 23/1/1
f 27/1/2 28/4/2 29/3/2
f 29/3/2 30/2/2 27/1/2
f 25/1/5 24/4/5 30/3/5
f 30/3/5 29/2/5 25/1/5
f 27/1/6 30/4/6 24/3/6
f 24/3/6 23/2/6 27/1/6
f 18/1/1 26/2/1 10/3/1
f 10/3/1 9/4/1 18/1/1
f 22/1/2 11/4/2 12/3/2
f 12/3/2 28/2/2 22/1/2
f 31/1/1 32/2/1 18/3/1
f 18/3/1 17/4/1 31/1/1
f 33/1/2 20/4/2 22/3/2
f 22/3/2 34/2/2 33/1/2
f 31/1/4 17/4/4 20/3/4
f 20/3/4 33/2/4 31/1/4
f 33/1/6 34/4/6 32/3/6
f 32/3/6 31/2/6 33/1/6
f 26/1/1 25/2/1 35/3/1
f 35/3/1 10/4/1 26/1/1
f 28/1/2 12/4/2 36/3/2
f 36/3/2 29/2/2 28/1/2
f 35/1/5 25/4/5 29/3/5
f 29/3/5 36/2/5 35/1/5
f 10/1/1 35/2/1 37/3/1
f 37/3/1 2/4/1 10/1/1
f 12/1/2 8/4/2 38/3/2
f 38/3/2 36/2/2 12/1/2
f 37/1/5 35/4/5 36/3/5
f 36/3/5 38/2/5 37/1/5
f 2/1/1 37/2/1 39/3/1
f 39/3/1 3/4/1 2/1/1
f 8/1/2 7/4/2 40/3/2
f 40/3/2 38/2/2 8/1/2
f 39/1/5 37/4/5 38/3/5
f 38/3/5 40/2/5 39/1/5
f 3/1/3 39/4/3 40/3/3
f 40/3/3 7/2/3 3/1/3
f 32/1/1 23/2/1 26/3/1
f 26/3/1 18/4/1 32/1/1
f 34/1/2 22/4/2 28/3/2
f 28/3/2 27/2/2 34/1/2
f 34/1/6 27/4/6 23/3/6
f 23/3/6 32/2/6 34/1/6
f 19/1/1 9/2/1 1/3/1
f 1/3/1 13/4/1 19/1/1
f 21/1/2 15/4/2 5/3/2
f 5/3/2 11/2/2 21/1/2
f 19/1/4 13/4/4 15/3/4
f 15/3/4 21/2/4 19/1/4