# Blender 3.4.1
# www.blender.org
o Cube
v 0.500000 0.500000 -0.500000
v 0.500000 0.500000 0.500000
v -0.500000 0.500000 -0.500000
v -0.500000 0.500000 0.500000
v 0.500000 -0.500000 -0.500000
v 0.500000 -0.500000 0.500000
v -0.500000 -0.500000 -0.500000
v -0.500000 -0.500000 0.500000
vn -0.0000 -0.0000 -1.0000
vn -1.0000 -0.0000 -0.0000
vn -0.0000 -1.0000 -0.0000
vn -0.0000 -0.0000 1.0000
vn -0.0000 1.0000 -0.0000
vn 1.0000 -0.0000 -0.0000
vt 0.333500 0.000500
vt 0.666500 0.333500
vt 0.999500 0.333500
vt 0.666500 0.666500
vt 0.666500 0.000500
vt 0.999500 0.666500
vt 0.333500 0.333500
vt 0.666500 0.333500
vt 0.333500 0.666500
vt 0.000500 0.000500
vt 0.999500 0.000500
vt 0.666500 0.333500
vt 0.333500 0.000500
vt 0.666500 0.666500
vt 0.999500 0.333500
vt 0.000500 0.333500
vt 0.666500 0.000500
vt 0.666500 0.333500
vt 0.000500 0.666500
vt 0.333500 0.333500
s 0
f 5/10/1 3/7/1 1/1/1
f 3/7/2 8/19/2 4/9/2
f 7/17/3 6/15/3 8/18/3
f 2/5/4 8/20/4 6/13/4
f 1/2/5 4/9/5 2/4/5
f 5/12/6 2/6/6 6/14/6
f 5/10/1 7/16/1 3/7/1
f 3/7/2 7/16/2 8/19/2
f 7/17/3 5/11/3 6/15/3
f 2/5/4 4/8/4 8/20/4
f 1/2/5 3/7/5 4/9/5
f 5/12/6 1/3/6 2/6/6
