# Blender 5.0.1
# www.blender.org
o Cube
v -0.500000 0.500000 0.500000
v -0.500000 0.500000 -0.500000
v 0.500000 0.500000 -0.500000
v -0.500000 -0.500000 0.500000
v -0.500000 -0.500000 -0.500000
v 0.500000 -0.500000 -0.500000
vn 0.6822 -0.2630 0.6822
vn 0.9759 -0.0677 0.2076
vn 0.1897 0.9633 0.1897
vn -0.0000 -0.0000 -1.0000
vn -0.0000 1.0000 -0.0000
vn -1.0000 -0.0000 -0.0000
vn 0.9915 -0.1244 0.0386
vn -0.0000 -1.0000 -0.0000
vt 1.000000 0.000000
vt 0.000000 1.000000
vt 1.000000 1.000000
vt 0.000000 0.000000
s 1
f 1/1/1 6/2/2 3/3/3
f 2/4/4 6/3/4 5/2/4
f 1/4/1 3/3/3 2/2/5
f 4/4/6 2/3/6 5/2/6
f 1/1/1 4/4/7 6/2/2
f 2/4/4 3/1/4 6/3/4
f 4/4/6 1/1/6 2/3/6
f 4/4/7 5/2/8 6/3/2
